<svg xmlns="http://www.w3.org/2000/svg" xmlns:xlink="http://www.w3.org/1999/xlink" width="500" zoomAndPan="magnify" viewBox="0 0 375 374.999991" height="500" preserveAspectRatio="xMidYMid meet" version="1.0"><defs><g/><clipPath id="c45ea95b52"><path d="M 0 146.140625 L 375 146.140625 L 375 217.785156 L 0 217.785156 Z M 0 146.140625 " clip-rule="nonzero"/></clipPath><clipPath id="0a7f5b1c08"><path d="M 187.5 100.960938 L 234.035156 100.960938 L 234.035156 147.496094 L 187.5 147.496094 Z M 187.5 100.960938 " clip-rule="nonzero"/></clipPath><clipPath id="7e7e415445"><path d="M 192.789062 214.628906 L 239.324219 214.628906 L 239.324219 261.160156 L 192.789062 261.160156 Z M 192.789062 214.628906 " clip-rule="nonzero"/></clipPath></defs><g fill="#ffffff" fill-opacity="1"><g transform="translate(50.291093, 332.801701)"><g><path d="M 226.25 -289.609375 L 231.1875 -219.671875 L 224.609375 -219.671875 C 224.609375 -241.609375 218.160156 -257.648438 205.265625 -267.796875 C 192.378906 -277.953125 174.28125 -283.03125 150.96875 -283.03125 L 85.15625 -283.03125 L 85.15625 -150.5625 L 116.421875 -150.5625 C 130.679688 -150.5625 141.992188 -153.988281 150.359375 -160.84375 C 158.722656 -167.695312 162.90625 -180.585938 162.90625 -199.515625 L 162.90625 -203.21875 L 169.484375 -203.21875 L 169.484375 -93.796875 L 162.90625 -93.796875 L 162.90625 -100.375 C 162.90625 -109.425781 161.804688 -116.757812 159.609375 -122.375 C 157.421875 -128 154.269531 -132.457031 150.15625 -135.75 C 146.039062 -139.039062 141.035156 -141.234375 135.140625 -142.328125 C 129.242188 -143.429688 122.457031 -143.984375 114.78125 -143.984375 L 85.15625 -143.984375 L 85.15625 -6.578125 L 144.796875 -6.578125 C 154.671875 -6.578125 163.378906 -6.851562 170.921875 -7.40625 C 178.460938 -7.957031 185.113281 -8.78125 190.875 -9.875 C 196.632812 -10.96875 201.640625 -12.40625 205.890625 -14.1875 C 210.140625 -15.96875 214.050781 -18.09375 217.625 -20.5625 C 226.394531 -26.601562 232.285156 -34.898438 235.296875 -45.453125 C 238.316406 -56.015625 239.96875 -68.972656 240.25 -84.328125 L 246.828125 -84.328125 L 246.828125 0 L 7 0 L 7 -6.578125 L 43.1875 -6.578125 L 43.1875 -283.03125 L 7 -283.03125 L 7 -289.609375 Z M 226.25 -289.609375 "/></g></g></g><g clip-path="url(#c45ea95b52)"><path fill="#fdf5f3" d="M -151.453125 146.140625 L 526.453125 146.140625 L 526.453125 217.636719 L -151.453125 217.636719 Z M -151.453125 146.140625 " fill-opacity="1" fill-rule="nonzero"/></g><g clip-path="url(#0a7f5b1c08)"><path fill="#fdf5f3" d="M 187.5 100.960938 L 234.035156 100.960938 L 234.035156 147.496094 L 187.5 147.496094 Z M 187.5 100.960938 " fill-opacity="1" fill-rule="nonzero"/></g><g fill="#ffffff" fill-opacity="1"><g transform="translate(52.238236, 210.366252)"><g><path d="M 41.96875 -53.71875 L 42.890625 -40.75 L 41.671875 -40.75 C 41.671875 -44.820312 40.472656 -47.796875 38.078125 -49.671875 C 35.691406 -51.554688 32.332031 -52.5 28 -52.5 L 15.796875 -52.5 L 15.796875 -27.9375 L 21.59375 -27.9375 C 24.238281 -27.9375 26.335938 -28.570312 27.890625 -29.84375 C 29.441406 -31.113281 30.21875 -33.503906 30.21875 -37.015625 L 30.21875 -37.703125 L 31.4375 -37.703125 L 31.4375 -17.40625 L 30.21875 -17.40625 L 30.21875 -18.625 C 30.21875 -20.300781 30.015625 -21.660156 29.609375 -22.703125 C 29.203125 -23.742188 28.613281 -24.566406 27.84375 -25.171875 C 27.082031 -25.785156 26.15625 -26.191406 25.0625 -26.390625 C 23.96875 -26.597656 22.710938 -26.703125 21.296875 -26.703125 L 15.796875 -26.703125 L 15.796875 -1.21875 L 26.859375 -1.21875 C 28.691406 -1.21875 30.304688 -1.269531 31.703125 -1.375 C 33.109375 -1.476562 34.34375 -1.628906 35.40625 -1.828125 C 36.476562 -2.035156 37.40625 -2.300781 38.1875 -2.625 C 38.976562 -2.957031 39.707031 -3.351562 40.375 -3.8125 C 42 -4.9375 43.085938 -6.476562 43.640625 -8.4375 C 44.203125 -10.394531 44.507812 -12.796875 44.5625 -15.640625 L 45.78125 -15.640625 L 45.78125 0 L 1.296875 0 L 1.296875 -1.21875 L 8.015625 -1.21875 L 8.015625 -52.5 L 1.296875 -52.5 L 1.296875 -53.71875 Z M 41.96875 -53.71875 "/></g></g></g><g fill="#ffffff" fill-opacity="1"><g transform="translate(114.567464, 210.366252)"><g><path d="M 24.953125 -53.71875 L 24.953125 -52.5 L 17.328125 -52.5 L 17.328125 -1.21875 L 27.546875 -1.21875 C 29.890625 -1.21875 31.882812 -1.289062 33.53125 -1.4375 C 35.1875 -1.59375 36.613281 -1.8125 37.8125 -2.09375 C 39.007812 -2.375 39.988281 -2.726562 40.75 -3.15625 C 41.507812 -3.59375 42.171875 -4.09375 42.734375 -4.65625 C 43.898438 -5.820312 44.75 -7.394531 45.28125 -9.375 C 45.820312 -11.363281 46.09375 -14.085938 46.09375 -17.546875 L 47.3125 -17.546875 L 47.3125 0 L 1.90625 0 L 1.90625 -1.21875 L 9.546875 -1.21875 L 9.546875 -52.5 L 1.90625 -52.5 L 1.90625 -53.71875 Z M 24.953125 -53.71875 "/></g></g></g><g fill="#ffffff" fill-opacity="1"><g transform="translate(176.896692, 210.366252)"><g><path d="M 23.65625 -53.71875 L 23.65625 -52.5 L 16.25 -52.5 L 30.296875 -10.765625 L 30.453125 -10.765625 L 41.28125 -41.203125 C 42.09375 -43.546875 42.738281 -45.363281 43.21875 -46.65625 C 43.707031 -47.957031 43.953125 -48.941406 43.953125 -49.609375 C 43.953125 -50.878906 43.414062 -51.675781 42.34375 -52 C 41.28125 -52.332031 39.554688 -52.5 37.171875 -52.5 L 37.171875 -53.71875 L 53.796875 -53.71875 L 53.796875 -52.5 L 52.046875 -52.5 C 50.921875 -52.5 50.09375 -52.421875 49.5625 -52.265625 C 49.03125 -52.117188 48.507812 -51.914062 48 -51.65625 C 47.4375 -51.351562 46.898438 -50.859375 46.390625 -50.171875 C 45.890625 -49.484375 45.410156 -48.503906 44.953125 -47.234375 L 27.25 1.828125 L 26.484375 1.828125 L 7.484375 -52.5 L 1.296875 -52.5 L 1.296875 -53.71875 Z M 23.65625 -53.71875 "/></g></g></g><g fill="#ffffff" fill-opacity="1"><g transform="translate(243.421658, 210.366252)"><g><path d="M 23.578125 -53.71875 L 23.578125 -52.5 L 16.640625 -52.5 L 16.640625 -1.21875 L 23.578125 -1.21875 L 23.578125 0 L 1.90625 0 L 1.90625 -1.21875 L 8.859375 -1.21875 L 8.859375 -52.5 L 1.90625 -52.5 L 1.90625 -53.71875 Z M 23.578125 -53.71875 "/></g></g></g><g fill="#ffffff" fill-opacity="1"><g transform="translate(280.34773, 210.366252)"><g><path d="M 31.828125 -50.296875 C 32.691406 -50.296875 33.25 -50.632812 33.5 -51.3125 C 33.75 -52 33.925781 -52.625 34.03125 -53.1875 L 35.25 -53.1875 L 35.25 -37.171875 L 34.03125 -37.171875 C 33.625 -42.253906 32.0625 -46.28125 29.34375 -49.25 C 26.625 -52.226562 22.972656 -53.71875 18.390625 -53.71875 C 15.128906 -53.71875 12.46875 -52.710938 10.40625 -50.703125 C 8.351562 -48.703125 7.328125 -45.945312 7.328125 -42.4375 C 7.328125 -40.550781 7.582031 -39.035156 8.09375 -37.890625 C 8.601562 -36.742188 9.441406 -35.800781 10.609375 -35.0625 C 11.773438 -34.320312 13.347656 -33.722656 15.328125 -33.265625 C 17.316406 -32.804688 19.765625 -32.300781 22.671875 -31.75 C 25.460938 -31.1875 27.847656 -30.535156 29.828125 -29.796875 C 31.816406 -29.054688 33.445312 -28.085938 34.71875 -26.890625 C 35.988281 -25.703125 36.90625 -24.242188 37.46875 -22.515625 C 38.03125 -20.785156 38.3125 -18.695312 38.3125 -16.25 C 38.3125 -10.863281 36.859375 -6.601562 33.953125 -3.46875 C 31.054688 -0.34375 27.015625 1.21875 21.828125 1.21875 C 19.941406 1.21875 18.25 1.015625 16.75 0.609375 C 15.25 0.203125 13.898438 -0.253906 12.703125 -0.765625 C 11.503906 -1.273438 10.457031 -1.734375 9.5625 -2.140625 C 8.675781 -2.546875 7.90625 -2.75 7.25 -2.75 C 6.332031 -2.75 5.785156 -2.390625 5.609375 -1.671875 C 5.429688 -0.960938 5.34375 -0.253906 5.34375 0.453125 L 4.125 0.453125 L 4.125 -18.84375 L 5.34375 -18.84375 C 5.34375 -15.894531 5.734375 -13.25 6.515625 -10.90625 C 7.304688 -8.570312 8.441406 -6.601562 9.921875 -5 C 11.398438 -3.394531 13.15625 -2.160156 15.1875 -1.296875 C 17.21875 -0.429688 19.503906 0 22.046875 0 C 23.878906 0 25.570312 -0.273438 27.125 -0.828125 C 28.675781 -1.390625 30.007812 -2.179688 31.125 -3.203125 C 32.25 -4.222656 33.113281 -5.441406 33.71875 -6.859375 C 34.332031 -8.285156 34.640625 -9.863281 34.640625 -11.59375 C 34.640625 -14.1875 34.179688 -16.207031 33.265625 -17.65625 C 32.359375 -19.113281 31.164062 -20.234375 29.6875 -21.015625 C 28.207031 -21.804688 26.515625 -22.367188 24.609375 -22.703125 C 22.703125 -23.035156 20.734375 -23.378906 18.703125 -23.734375 C 17.117188 -23.984375 15.648438 -24.300781 14.296875 -24.6875 C 12.953125 -25.070312 11.722656 -25.539062 10.609375 -26.09375 C 8.472656 -27.113281 6.859375 -28.675781 5.765625 -30.78125 C 4.671875 -32.894531 4.125 -35.910156 4.125 -39.828125 C 4.125 -42.015625 4.46875 -44.035156 5.15625 -45.890625 C 5.84375 -47.753906 6.804688 -49.359375 8.046875 -50.703125 C 9.296875 -52.054688 10.796875 -53.097656 12.546875 -53.828125 C 14.304688 -54.566406 16.253906 -54.9375 18.390625 -54.9375 C 20.273438 -54.9375 21.925781 -54.695312 23.34375 -54.21875 C 24.769531 -53.738281 26.003906 -53.203125 27.046875 -52.609375 C 28.097656 -52.023438 29.003906 -51.492188 29.765625 -51.015625 C 30.523438 -50.535156 31.210938 -50.296875 31.828125 -50.296875 Z M 31.828125 -50.296875 "/></g></g></g><g clip-path="url(#7e7e415445)"><path fill="#fdf5f3" d="M 192.789062 214.628906 L 239.324219 214.628906 L 239.324219 261.160156 L 192.789062 261.160156 Z M 192.789062 214.628906 " fill-opacity="1" fill-rule="nonzero"/></g></svg>