<svg width="110" height="32" viewBox="0 0 110 32" fill="none" xmlns="http://www.w3.org/2000/svg">
<path d="M40.1683 12.47V15.62H44.3983V17.618H40.1683V20.948H44.9383V23H37.6483V10.418H44.9383V12.47H40.1683ZM51.3863 20.678L53.9063 13.028H56.5883L52.8983 23H49.8383L46.1663 13.028H48.8663L51.3863 20.678ZM67.2737 17.798C67.2737 18.158 67.2497 18.482 67.2017 18.77H59.9117C59.9717 19.49 60.2237 20.054 60.6677 20.462C61.1117 20.87 61.6577 21.074 62.3057 21.074C63.2417 21.074 63.9077 20.672 64.3037 19.868H67.0217C66.7337 20.828 66.1817 21.62 65.3657 22.244C64.5497 22.856 63.5477 23.162 62.3597 23.162C61.3997 23.162 60.5357 22.952 59.7677 22.532C59.0117 22.1 58.4177 21.494 57.9857 20.714C57.5657 19.934 57.3557 19.034 57.3557 18.014C57.3557 16.982 57.5657 16.076 57.9857 15.296C58.4057 14.516 58.9937 13.916 59.7497 13.496C60.5057 13.076 61.3757 12.866 62.3597 12.866C63.3077 12.866 64.1537 13.07 64.8977 13.478C65.6537 13.886 66.2357 14.468 66.6437 15.224C67.0637 15.968 67.2737 16.826 67.2737 17.798ZM64.6637 17.078C64.6517 16.43 64.4177 15.914 63.9617 15.53C63.5057 15.134 62.9477 14.936 62.2877 14.936C61.6637 14.936 61.1357 15.128 60.7037 15.512C60.2837 15.884 60.0257 16.406 59.9297 17.078H64.6637ZM74.6391 12.884C75.8271 12.884 76.7871 13.262 77.5191 14.018C78.2511 14.762 78.6171 15.806 78.6171 17.15V23H76.0971V17.492C76.0971 16.7 75.8991 16.094 75.5031 15.674C75.1071 15.242 74.5671 15.026 73.8831 15.026C73.1871 15.026 72.6351 15.242 72.2271 15.674C71.8311 16.094 71.6331 16.7 71.6331 17.492V23H69.1131V13.028H71.6331V14.27C71.9691 13.838 72.3951 13.502 72.9111 13.262C73.4391 13.01 74.0151 12.884 74.6391 12.884ZM83.9475 15.098V19.922C83.9475 20.258 84.0255 20.504 84.1815 20.66C84.3495 20.804 84.6255 20.876 85.0095 20.876H86.1795V23H84.5955C82.4715 23 81.4095 21.968 81.4095 19.904V15.098H80.2215V13.028H81.4095V10.562H83.9475V13.028H86.1795V15.098H83.9475ZM89.27 11.84C88.826 11.84 88.454 11.702 88.154 11.426C87.866 11.138 87.722 10.784 87.722 10.364C87.722 9.944 87.866 9.596 88.154 9.32C88.454 9.032 88.826 8.888 89.27 8.888C89.714 8.888 90.08 9.032 90.368 9.32C90.668 9.596 90.818 9.944 90.818 10.364C90.818 10.784 90.668 11.138 90.368 11.426C90.08 11.702 89.714 11.84 89.27 11.84ZM90.512 13.028V23H87.992V13.028H90.512ZM97.5738 15.098H95.8278V23H93.2718V15.098H92.1378V13.028H93.2718V12.524C93.2718 11.3 93.6198 10.4 94.3158 9.824C95.0118 9.248 96.0618 8.978 97.4658 9.014V11.138C96.8538 11.126 96.4278 11.228 96.1878 11.444C95.9478 11.66 95.8278 12.05 95.8278 12.614V13.028H97.5738V15.098ZM108.747 13.028L102.573 27.716H99.8908L102.051 22.748L98.0548 13.028H100.881L103.455 19.994L106.065 13.028H108.747Z" fill="white"/>
<path d="M16.4063 0C13.2417 -3.77363e-08 10.1483 0.938383 7.51713 2.69649C4.88594 4.45459 2.83518 6.95345 1.62418 9.87706C0.413176 12.8007 0.096322 16.0177 0.713685 19.1214C1.33105 22.2251 2.8549 25.0761 5.09254 27.3137C7.33018 29.5513 10.1811 31.0752 13.2848 31.6926C16.3885 32.3099 19.6056 31.9931 22.5292 30.7821C25.4528 29.5711 27.9517 27.5203 29.7098 24.8891C31.4679 22.2579 32.4062 19.1645 32.4062 16L24.4062 16C24.4062 17.5823 23.9371 19.129 23.058 20.4446C22.179 21.7602 20.9295 22.7855 19.4677 23.391C18.0059 23.9965 16.3974 24.155 14.8455 23.8463C13.2937 23.5376 11.8682 22.7757 10.7494 21.6569C9.63057 20.538 8.86865 19.1126 8.55997 17.5607C8.25129 16.0089 8.40971 14.4003 9.01521 12.9385C9.62072 11.4767 10.6461 10.2273 11.9617 9.34824C13.2773 8.46919 14.824 8 16.4063 8L16.4063 0Z" fill="white"/>
<path d="M16.4063 0C14.3051 -2.5056e-08 12.2245 0.413852 10.2833 1.21793C8.34211 2.022 6.57828 3.20055 5.09254 4.68629C3.6068 6.17203 2.42825 7.93586 1.62418 9.87707C0.820102 11.8183 0.40625 13.8989 0.40625 16L8.40625 16C8.40625 14.9494 8.61318 13.9091 9.01521 12.9385C9.41725 11.9679 10.0065 11.086 10.7494 10.3431C11.4923 9.60028 12.3742 9.011 13.3448 8.60896C14.3154 8.20693 15.3557 8 16.4063 8L16.4063 0Z" fill="white"/>
<circle cx="16.4062" cy="16" r="5" fill="white"/>
<path d="M21.4062 16C21.4062 15.3434 21.2769 14.6932 21.0256 14.0866C20.7744 13.48 20.4061 12.9288 19.9418 12.4645C19.4775 12.0002 18.9263 11.6319 18.3197 11.3806C17.713 11.1293 17.0629 11 16.4062 11C15.7496 11 15.0995 11.1293 14.4928 11.3806C13.8862 11.6319 13.335 12.0002 12.8707 12.4645C12.4064 12.9288 12.0381 13.48 11.7869 14.0866C11.5356 14.6932 11.4062 15.3434 11.4063 16L16.4062 16H21.4062Z" fill="white"/>
</svg>
